<mxfile host="app.diagrams.net" modified="2025-01-07T12:00:00.000Z" agent="5.0" etag="AWS-Architecture" version="22.1.11">
  <diagram name="AWS Novel Downloader Architecture" id="aws-novel-downloader">
    <mxGraphModel dx="1422" dy="794" grid="1" gridSize="10" guides="1" tooltips="1" connect="1" arrows="1" fold="1" page="1" pageScale="1" pageWidth="1169" pageHeight="827" math="0" shadow="0">
      <root>
        <mxCell id="0" />
        <mxCell id="1" parent="0" />
        
        <!-- Internet/Users -->
        <mxCell id="internet" value="Internet Users" style="ellipse;shape=cloud;whiteSpace=wrap;html=1;fillColor=#e1d5e7;strokeColor=#9673a6;" vertex="1" parent="1">
          <mxGeometry x="40" y="50" width="120" height="80" as="geometry" />
        </mxCell>
        
        <!-- CloudFront CDN -->
        <mxCell id="cloudfront" value="CloudFront CDN&#xa;(Global Edge Locations)" style="rounded=1;whiteSpace=wrap;html=1;fillColor=#f8cecc;strokeColor=#b85450;" vertex="1" parent="1">
          <mxGeometry x="220" y="40" width="140" height="100" as="geometry" />
        </mxCell>
        
        <!-- S3 Static Website -->
        <mxCell id="s3-frontend" value="S3 Static Website&#xa;React/Vue.js SPA&#xa;HTML/CSS/JS" style="rounded=1;whiteSpace=wrap;html=1;fillColor=#d5e8d4;strokeColor=#82b366;" vertex="1" parent="1">
          <mxGeometry x="420" y="40" width="140" height="100" as="geometry" />
        </mxCell>
        
        <!-- API Gateway -->
        <mxCell id="api-gateway" value="API Gateway&#xa;REST API&#xa;Authentication&#xa;Rate Limiting" style="rounded=1;whiteSpace=wrap;html=1;fillColor=#fff2cc;strokeColor=#d6b656;" vertex="1" parent="1">
          <mxGeometry x="420" y="200" width="140" height="100" as="geometry" />
        </mxCell>
        
        <!-- Lambda Functions -->
        <mxCell id="lambda-api" value="Lambda Function&#xa;API Handler&#xa;Request Processing" style="rounded=1;whiteSpace=wrap;html=1;fillColor=#ffcccc;strokeColor=#ff6666;" vertex="1" parent="1">
          <mxGeometry x="220" y="350" width="120" height="80" as="geometry" />
        </mxCell>
        
        <mxCell id="lambda-download" value="Lambda Function&#xa;Download Core&#xa;Chapter Processing" style="rounded=1;whiteSpace=wrap;html=1;fillColor=#ffcccc;strokeColor=#ff6666;" vertex="1" parent="1">
          <mxGeometry x="420" y="350" width="120" height="80" as="geometry" />
        </mxCell>
        
        <mxCell id="lambda-status" value="Lambda Function&#xa;Status Checker&#xa;Progress Monitor" style="rounded=1;whiteSpace=wrap;html=1;fillColor=#ffcccc;strokeColor=#ff6666;" vertex="1" parent="1">
          <mxGeometry x="620" y="350" width="120" height="80" as="geometry" />
        </mxCell>
        
        <!-- SQS -->
        <mxCell id="sqs" value="Amazon SQS&#xa;Download Queue&#xa;Async Processing&#xa;Dead Letter Queue" style="rounded=1;whiteSpace=wrap;html=1;fillColor=#e6f2ff;strokeColor=#0066cc;" vertex="1" parent="1">
          <mxGeometry x="620" y="200" width="140" height="100" as="geometry" />
        </mxCell>
        
        <!-- ECS Fargate -->
        <mxCell id="ecs-fargate" value="ECS Fargate&#xa;Heavy Processing&#xa;Auto Scaling&#xa;Python Downloader" style="rounded=1;whiteSpace=wrap;html=1;fillColor=#ccf2ff;strokeColor=#0099cc;" vertex="1" parent="1">
          <mxGeometry x="820" y="200" width="140" height="100" as="geometry" />
        </mxCell>
        
        <!-- DynamoDB -->
        <mxCell id="dynamodb" value="DynamoDB&#xa;• Users Table&#xa;• Works Metadata&#xa;• Download History&#xa;• Progress Status" style="rounded=1;whiteSpace=wrap;html=1;fillColor=#ffeb99;strokeColor=#ffcc00;" vertex="1" parent="1">
          <mxGeometry x="220" y="500" width="140" height="120" as="geometry" />
        </mxCell>
        
        <!-- S3 Storage -->
        <mxCell id="s3-storage" value="S3 Storage&#xa;• Generated Files (.txt)&#xa;• EPUB Conversions&#xa;• Temporary Storage&#xa;• Backup Data" style="rounded=1;whiteSpace=wrap;html=1;fillColor=#d5e8d4;strokeColor=#82b366;" vertex="1" parent="1">
          <mxGeometry x="620" y="500" width="140" height="120" as="geometry" />
        </mxCell>
        
        <!-- CloudWatch -->
        <mxCell id="cloudwatch" value="CloudWatch&#xa;• Logs Aggregation&#xa;• Performance Metrics&#xa;• Alerts &amp; Notifications&#xa;• Dashboard" style="rounded=1;whiteSpace=wrap;html=1;fillColor=#f0f0f0;strokeColor=#808080;" vertex="1" parent="1">
          <mxGeometry x="420" y="680" width="140" height="120" as="geometry" />
        </mxCell>
        
        <!-- Cognito -->
        <mxCell id="cognito" value="Amazon Cognito&#xa;User Authentication&#xa;User Pools&#xa;JWT Tokens" style="rounded=1;whiteSpace=wrap;html=1;fillColor=#ffe6cc;strokeColor=#ff9900;" vertex="1" parent="1">
          <mxGeometry x="40" y="350" width="120" height="100" as="geometry" />
        </mxCell>
        
        <!-- Connections -->
        <!-- Internet to CloudFront -->
        <mxCell id="conn1" style="edgeStyle=orthogonalEdgeStyle;rounded=0;orthogonalLoop=1;jettySize=auto;html=1;exitX=1;exitY=0.5;exitDx=0;exitDy=0;entryX=0;entryY=0.5;entryDx=0;entryDy=0;" edge="1" parent="1" source="internet" target="cloudfront">
          <mxGeometry relative="1" as="geometry" />
        </mxCell>
        
        <!-- CloudFront to S3 Frontend -->
        <mxCell id="conn2" style="edgeStyle=orthogonalEdgeStyle;rounded=0;orthogonalLoop=1;jettySize=auto;html=1;exitX=1;exitY=0.5;exitDx=0;exitDy=0;entryX=0;entryY=0.5;entryDx=0;entryDy=0;" edge="1" parent="1" source="cloudfront" target="s3-frontend">
          <mxGeometry relative="1" as="geometry" />
        </mxCell>
        
        <!-- S3 Frontend to API Gateway -->
        <mxCell id="conn3" style="edgeStyle=orthogonalEdgeStyle;rounded=0;orthogonalLoop=1;jettySize=auto;html=1;exitX=0.5;exitY=1;exitDx=0;exitDy=0;entryX=0.5;entryY=0;entryDx=0;entryDy=0;" edge="1" parent="1" source="s3-frontend" target="api-gateway">
          <mxGeometry relative="1" as="geometry" />
        </mxCell>
        
        <!-- API Gateway to Lambda Functions -->
        <mxCell id="conn4" style="edgeStyle=orthogonalEdgeStyle;rounded=0;orthogonalLoop=1;jettySize=auto;html=1;exitX=0;exitY=1;exitDx=0;exitDy=0;entryX=0.5;entryY=0;entryDx=0;entryDy=0;" edge="1" parent="1" source="api-gateway" target="lambda-api">
          <mxGeometry relative="1" as="geometry" />
        </mxCell>
        
        <mxCell id="conn5" style="edgeStyle=orthogonalEdgeStyle;rounded=0;orthogonalLoop=1;jettySize=auto;html=1;exitX=0.5;exitY=1;exitDx=0;exitDy=0;entryX=0.5;entryY=0;entryDx=0;entryDy=0;" edge="1" parent="1" source="api-gateway" target="lambda-download">
          <mxGeometry relative="1" as="geometry" />
        </mxCell>
        
        <mxCell id="conn6" style="edgeStyle=orthogonalEdgeStyle;rounded=0;orthogonalLoop=1;jettySize=auto;html=1;exitX=1;exitY=1;exitDx=0;exitDy=0;entryX=0.5;entryY=0;entryDx=0;entryDy=0;" edge="1" parent="1" source="api-gateway" target="lambda-status">
          <mxGeometry relative="1" as="geometry" />
        </mxCell>
        
        <!-- API Gateway to SQS -->
        <mxCell id="conn7" style="edgeStyle=orthogonalEdgeStyle;rounded=0;orthogonalLoop=1;jettySize=auto;html=1;exitX=1;exitY=0.5;exitDx=0;exitDy=0;entryX=0;entryY=0.5;entryDx=0;entryDy=0;" edge="1" parent="1" source="api-gateway" target="sqs">
          <mxGeometry relative="1" as="geometry" />
        </mxCell>
        
        <!-- SQS to ECS Fargate -->
        <mxCell id="conn8" style="edgeStyle=orthogonalEdgeStyle;rounded=0;orthogonalLoop=1;jettySize=auto;html=1;exitX=1;exitY=0.5;exitDx=0;exitDy=0;entryX=0;entryY=0.5;entryDx=0;entryDy=0;" edge="1" parent="1" source="sqs" target="ecs-fargate">
          <mxGeometry relative="1" as="geometry" />
        </mxCell>
        
        <!-- Lambda to DynamoDB -->
        <mxCell id="conn9" style="edgeStyle=orthogonalEdgeStyle;rounded=0;orthogonalLoop=1;jettySize=auto;html=1;exitX=0.5;exitY=1;exitDx=0;exitDy=0;entryX=0.5;entryY=0;entryDx=0;entryDy=0;" edge="1" parent="1" source="lambda-api" target="dynamodb">
          <mxGeometry relative="1" as="geometry" />
        </mxCell>
        
        <!-- Lambda to S3 Storage -->
        <mxCell id="conn10" style="edgeStyle=orthogonalEdgeStyle;rounded=0;orthogonalLoop=1;jettySize=auto;html=1;exitX=0.5;exitY=1;exitDx=0;exitDy=0;entryX=0.5;entryY=0;entryDx=0;entryDy=0;" edge="1" parent="1" source="lambda-status" target="s3-storage">
          <mxGeometry relative="1" as="geometry" />
        </mxCell>
        
        <!-- ECS to S3 Storage -->
        <mxCell id="conn11" style="edgeStyle=orthogonalEdgeStyle;rounded=0;orthogonalLoop=1;jettySize=auto;html=1;exitX=0.5;exitY=1;exitDx=0;exitDy=0;entryX=1;entryY=0.5;entryDx=0;entryDy=0;" edge="1" parent="1" source="ecs-fargate" target="s3-storage">
          <mxGeometry relative="1" as="geometry" />
        </mxCell>
        
        <!-- CloudWatch connections -->
        <mxCell id="conn12" style="edgeStyle=orthogonalEdgeStyle;rounded=0;orthogonalLoop=1;jettySize=auto;html=1;exitX=0.5;exitY=1;exitDx=0;exitDy=0;entryX=0;entryY=0.5;entryDx=0;entryDy=0;dashed=1;" edge="1" parent="1" source="lambda-download" target="cloudwatch">
          <mxGeometry relative="1" as="geometry" />
        </mxCell>
        
        <!-- Cognito to API Gateway -->
        <mxCell id="conn13" style="edgeStyle=orthogonalEdgeStyle;rounded=0;orthogonalLoop=1;jettySize=auto;html=1;exitX=1;exitY=0;exitDx=0;exitDy=0;entryX=0;entryY=0;entryDx=0;entryDy=0;dashed=1;" edge="1" parent="1" source="cognito" target="api-gateway">
          <mxGeometry relative="1" as="geometry" />
        </mxCell>
        
        <!-- Labels -->
        <mxCell id="label1" value="HTTPS/WebSocket" style="text;html=1;strokeColor=none;fillColor=none;align=center;verticalAlign=middle;whiteSpace=wrap;rounded=0;fontSize=10;" vertex="1" parent="1">
          <mxGeometry x="140" y="60" width="100" height="20" as="geometry" />
        </mxCell>
        
        <mxCell id="label2" value="REST API" style="text;html=1;strokeColor=none;fillColor=none;align=center;verticalAlign=middle;whiteSpace=wrap;rounded=0;fontSize=10;" vertex="1" parent="1">
          <mxGeometry x="450" y="160" width="80" height="20" as="geometry" />
        </mxCell>
        
        <mxCell id="label3" value="Async Queue" style="text;html=1;strokeColor=none;fillColor=none;align=center;verticalAlign=middle;whiteSpace=wrap;rounded=0;fontSize=10;" vertex="1" parent="1">
          <mxGeometry x="750" y="230" width="80" height="20" as="geometry" />
        </mxCell>
        
        <mxCell id="label4" value="Database" style="text;html=1;strokeColor=none;fillColor=none;align=center;verticalAlign=middle;whiteSpace=wrap;rounded=0;fontSize=10;" vertex="1" parent="1">
          <mxGeometry x="250" y="470" width="80" height="20" as="geometry" />
        </mxCell>
        
        <mxCell id="label5" value="File Storage" style="text;html=1;strokeColor=none;fillColor=none;align=center;verticalAlign=middle;whiteSpace=wrap;rounded=0;fontSize=10;" vertex="1" parent="1">
          <mxGeometry x="650" y="470" width="80" height="20" as="geometry" />
        </mxCell>
        
        <!-- Title -->
        <mxCell id="title" value="小説家になろう ダウンローダー - AWS サーバーレス アーキテクチャ" style="text;html=1;strokeColor=none;fillColor=none;align=center;verticalAlign=middle;whiteSpace=wrap;rounded=0;fontSize=16;fontStyle=1;" vertex="1" parent="1">
          <mxGeometry x="300" y="10" width="400" height="30" as="geometry" />
        </mxCell>
        
      </root>
    </mxGraphModel>
  </diagram>
</mxfile>